<svg xmlns="http://www.w3.org/2000/svg" width="2000" height="500">
  <path fill="#FFF" fill-rule="evenodd" d="M204.949791.55933935h99.483687L510.131527 499.188303H409.900495L255.065764 86.1383513 96.490653 499.188303H0zm356.045055 0h93.498532V499.188303h-93.498532zm550.308174 0V78.2360903H728.241169L726.834187.55933934h384.468833zm0 210.04896865v288.579995H728.241194V373.018252l89.352172-.000114.913625 48.454194h212.415329v-132.73979H728.241194v-78.124234h383.061826zM1184.97133.55933935h80.58719V422.498911h284.86272v76.689392h-365.44991zm814.28544-.00421484V77.2326514h-384.46793V.55512451h384.46793zM1612.29282 288.285906l-1.06985-77.373339h312.29247l-.50249 77.373339h-228.35137v134.90119H1999.011v76.001207h-387.78803l1.06985-210.902397z"/>
</svg>